<?xml version="1.0" ?><svg height="48" viewBox="0 0 48 48" width="48" xmlns="http://www.w3.org/2000/svg"><defs><style>.cls-1{fill:#35dc86;}.cls-2{fill:#f1f2f2;}.cls-3{fill:#474c54;}</style></defs><title/><g data-name="18-Bitcoin" id="_18-Bitcoin"><path class="cls-1" d="M24,38a14,14,0,0,1,0-28H44a3,3,0,0,1,3,3V35a3,3,0,0,1-3,3Z"/><path class="cls-1" d="M13,10H24a14,14,0,0,0,0,28H4a3,3,0,0,1-3-3V13a3,3,0,0,1,3-3Z"/><circle class="cls-2" cx="24" cy="24" r="14"/><path class="cls-3" d="M44,9H24a15,15,0,0,0-7.478,28H4a2,2,0,0,1-2-2V13a2,2,0,0,1,2-2h9a1,1,0,0,0,0-2H4a4,4,0,0,0-4,4V35a4,4,0,0,0,4,4H44a4,4,0,0,0,4-4V13A4,4,0,0,0,44,9Zm2,26a2,2,0,0,1-2,2H31.478a15,15,0,0,0,4.1-22.542,1,1,0,0,0-1.543,1.273A13,13,0,1,1,24,11H44a2,2,0,0,1,2,2Z"/><path class="cls-3" d="M5,23a1,1,0,0,0,0,2H6a1,1,0,0,0,0-2Z"/><path class="cls-3" d="M43,23H42a1,1,0,0,0,0,2h1a1,1,0,0,0,0-2Z"/><path class="cls-3" d="M27,17.142V16a1,1,0,0,0-2,0v1H23V16a1,1,0,0,0-2,0v1H20a1,1,0,0,0-1,1V30a1,1,0,0,0,1,1h1v1a1,1,0,0,0,2,0V31h2v1a1,1,0,0,0,2,0V30.858A3.986,3.986,0,0,0,28.643,24,3.986,3.986,0,0,0,27,17.142ZM26,29H21V25h5a2,2,0,0,1,0,4Zm0-6H21V19h5a2,2,0,0,1,0,4Z"/></g></svg>